<svg id="Layer_1" enable-background="new 0 0 512 512" height="512" viewBox="0 0 512 512" width="512" xmlns="http://www.w3.org/2000/svg"><g><path d="m392.836 0h-314.454c-11.013 0-19.974 8.96-19.974 19.974v379.531c0 11.014 8.96 19.974 19.974 19.974h20.212c1.386 0 2.709-.575 3.655-1.588l309.5-331.482c.864-.926 1.345-2.146 1.345-3.412v-62.739c.001-11.17-9.087-20.258-20.258-20.258z" fill="#ff6986"/><path d="m453.592 123.49v311.01c0 11.02-8.96 19.98-19.97 19.98h-320.05c-11.02 0-19.98-8.96-19.98-19.98v-377.03c0-11.01 8.96-19.97 19.98-19.97h254.02l9.24 9.24z" fill="#d9f9f8"/><path d="m453.592 123.49v311.01c0 11.02-8.96 19.98-19.97 19.98h-320.05c-11.02 0-19.98-8.96-19.98-19.98v-5.02h319.3c11.15 0 20.19-9.04 20.19-20.2v-285.79l-56.25-76.75z" fill="#c1eaf4"/><path d="m453.592 123.49h-20.51l-58.91-.01c-3.63 0-6.58-2.94-6.58-6.58v-79.4c1.33 0 2.6.52 3.54 1.46l81 81c.94.94 1.46 2.21 1.46 3.53z" fill="#aec9d6"/><path d="m453.592 123.49h-20.51l-61.95-84.53 81 81c.94.94 1.46 2.21 1.46 3.53z" fill="#8fb2bc"/><g fill="#aec9d6"><path d="m184.069 190.456h179.422c4.142 0 7.5-3.357 7.5-7.5s-3.358-7.5-7.5-7.5h-179.422c-4.142 0-7.5 3.357-7.5 7.5s3.358 7.5 7.5 7.5z"/><path d="m363.491 219.688h-179.422c-4.142 0-7.5 3.357-7.5 7.5s3.358 7.5 7.5 7.5h179.422c4.142 0 7.5-3.357 7.5-7.5s-3.358-7.5-7.5-7.5z"/><path d="m363.491 264.802h-35.447c-4.142 0-7.5 3.357-7.5 7.5s3.358 7.5 7.5 7.5h35.447c4.142 0 7.5-3.357 7.5-7.5s-3.358-7.5-7.5-7.5z"/><path d="m292.747 264.802h-108.678c-4.142 0-7.5 3.357-7.5 7.5s3.358 7.5 7.5 7.5h108.678c4.142 0 7.5-3.357 7.5-7.5s-3.358-7.5-7.5-7.5z"/></g><path d="m367.982 417.81c0 51.93-42.26 94.19-94.2 94.19-4.06 0-8.06-.26-11.98-.76h-.04c-46.29-5.93-82.18-45.57-82.18-93.43 0-47.87 35.89-87.51 82.18-93.44h.04c3.92-.5 7.92-.76 11.98-.76 51.94 0 94.2 42.26 94.2 94.2z" fill="#ff6986"/><path d="m367.982 417.81c0 51.93-42.26 94.19-94.2 94.19-4.06 0-8.06-.26-11.98-.76 46.29-5.93 82.18-45.57 82.18-93.43 0-47.87-35.89-87.51-82.18-93.44 3.92-.5 7.92-.76 11.98-.76 51.94 0 94.2 42.26 94.2 94.2z" fill="#ea3487"/><path d="m311.881 410.598c-2.929 2.93-7.678 2.929-10.606.001l-19.994-19.993v72.506c0 4.143-3.358 7.5-7.5 7.5s-7.5-3.357-7.5-7.5v-72.506l-19.994 19.993c-2.929 2.928-7.678 2.929-10.606-.001-2.929-2.929-2.929-7.678 0-10.606l32.797-32.796c1.464-1.464 3.384-2.196 5.303-2.196s3.839.732 5.303 2.196l32.797 32.796c2.929 2.928 2.929 7.677 0 10.606z" fill="#fff"/></g></svg>